<?xml version="1.0" standalone="no"?>
<!DOCTYPE svg PUBLIC "-//W3C//DTD SVG 20010904//EN"
 "http://www.w3.org/TR/2001/REC-SVG-20010904/DTD/svg10.dtd">
<svg version="1.0" xmlns="http://www.w3.org/2000/svg"
 width="1280.000000pt" height="786.000000pt" viewBox="0 0 1280.000000 786.000000"
 preserveAspectRatio="xMidYMid meet">
<metadata>
Created by potrace 1.15, written by Peter Selinger 2001-2017
</metadata>
<g transform="translate(0.000000,786.000000) scale(0.100000,-0.100000)"
fill="#8bc34a" stroke="none">
<path d="M5075 7854 c-881 -56 -1620 -313 -2009 -700 -267 -264 -341 -573
-206 -862 40 -85 94 -165 163 -238 31 -34 57 -64 57 -66 0 -3 -59 -8 -132 -12
-261 -14 -546 -46 -858 -97 -1266 -207 -2090 -664 -2090 -1159 0 -501 826
-956 2112 -1165 760 -123 1646 -148 2453 -69 313 30 696 91 979 155 127 28
138 29 406 29 755 0 1906 41 2505 89 90 7 130 5 220 -10 617 -103 1363 -101
2008 7 1078 180 1872 627 2067 1162 113 312 26 628 -252 910 -383 390 -1072
676 -1928 802 -107 15 -233 31 -280 35 -134 10 -125 4 -126 82 -1 89 -36 161
-118 243 -73 72 -122 107 -239 166 -282 144 -670 237 -1131 274 -167 13 -575
13 -747 0 -139 -11 -369 -42 -475 -64 l-62 -12 -63 39 c-367 224 -884 379
-1469 442 -138 15 -652 27 -785 19z"/>
<path d="M6681 3023 l-21 -18 66 -93 67 -94 -14 -74 -14 -75 -110 155 c-60 86
-113 155 -116 156 -4 0 -17 -8 -29 -18 l-22 -17 131 -182 c131 -181 138 -196
122 -253 -7 -24 -10 -21 -60 47 -45 63 -55 71 -71 63 -10 -6 -22 -15 -25 -20
-3 -5 26 -55 65 -110 l72 -100 -17 -102 c-10 -57 -19 -105 -20 -106 -2 -2 -49
22 -105 53 -55 32 -103 55 -106 53 -2 -3 -21 -56 -42 -118 l-38 -112 -90 75
-90 74 -12 128 c-7 71 -14 130 -17 133 -2 2 -16 1 -30 -2 l-27 -7 7 -96 8 -96
-32 23 c-18 12 -36 32 -40 44 -5 11 -16 104 -25 206 -22 240 -19 228 -56 222
-20 -3 -30 -10 -29 -21 0 -9 8 -91 18 -183 9 -93 14 -168 11 -168 -3 0 -29 22
-58 48 l-53 47 -10 110 c-6 61 -12 111 -13 113 -2 1 -16 0 -32 -4 l-29 -6 9
-99 c5 -55 7 -101 5 -103 -2 -2 -48 -9 -103 -14 -54 -6 -100 -13 -103 -15 -2
-3 -1 -17 3 -32 7 -30 -2 -30 179 -9 49 6 53 4 109 -41 31 -26 56 -48 54 -50
-2 -2 -77 -10 -168 -19 -211 -21 -210 -21 -210 -51 0 -13 4 -26 9 -29 5 -3
108 4 228 16 l219 22 39 -30 39 -29 -70 -8 c-113 -13 -114 -14 -114 -48 l0
-32 48 6 c26 4 84 10 129 13 l82 7 80 -68 c45 -37 79 -70 76 -74 -2 -5 -45
-32 -94 -60 -50 -29 -93 -56 -96 -62 -4 -5 28 -48 70 -95 42 -47 74 -88 72
-90 -3 -3 -49 -22 -104 -43 l-99 -38 -119 54 c-111 49 -121 52 -132 36 -7 -9
-13 -22 -13 -28 0 -7 39 -30 88 -53 l87 -41 -37 -15 c-21 -9 -44 -16 -52 -16
-8 0 -101 39 -206 87 -184 83 -193 86 -206 68 -8 -10 -14 -24 -14 -29 0 -6 75
-44 165 -85 91 -41 162 -78 158 -81 -4 -4 -34 -17 -65 -29 l-58 -21 -106 47
c-87 38 -107 44 -115 32 -21 -33 -9 -47 77 -85 47 -20 87 -41 90 -45 2 -4 -14
-46 -36 -94 -22 -48 -40 -90 -40 -94 0 -11 54 -34 57 -24 2 4 23 51 47 103
l43 95 67 28 c38 16 70 27 72 24 2 -2 -30 -77 -71 -168 -41 -90 -75 -170 -75
-176 0 -12 47 -30 54 -22 2 2 45 94 94 204 90 197 91 200 133 218 23 9 43 16
45 14 2 -1 -13 -36 -31 -77 -19 -41 -35 -80 -35 -86 0 -11 48 -29 55 -22 2 2
25 52 52 112 l49 109 100 38 99 37 9 -121 c4 -67 9 -123 11 -125 1 -1 46 7
100 18 146 30 135 38 114 -86 -10 -59 -20 -107 -21 -109 -103 -72 -208 -151
-208 -156 0 -4 8 -16 18 -27 17 -21 17 -21 91 33 41 30 77 53 79 50 2 -2 1
-23 -2 -47 -7 -42 -10 -45 -177 -163 -94 -66 -174 -124 -179 -130 -5 -6 0 -20
11 -33 l18 -24 148 107 c161 116 163 117 143 20 -11 -53 -13 -56 -101 -120
-49 -36 -89 -69 -89 -73 1 -10 26 -42 33 -42 4 0 41 25 83 55 42 30 80 55 84
55 3 0 32 -36 64 -80 31 -44 60 -80 64 -80 4 0 17 7 30 15 l22 16 -68 93 -68
94 10 65 c6 36 14 68 17 72 4 3 55 -62 114 -145 59 -82 110 -150 115 -150 4 0
17 8 28 17 20 18 19 20 -112 202 -130 179 -133 184 -126 222 4 22 10 42 12 44
3 3 27 -26 54 -65 27 -38 52 -70 55 -70 4 0 16 8 28 18 l22 17 -72 100 -72 99
13 96 c7 52 15 100 19 107 4 8 39 -7 110 -48 57 -33 107 -56 111 -52 4 4 22
53 40 108 18 55 35 103 39 107 5 6 117 -77 163 -121 5 -4 13 -56 18 -116 16
-157 16 -157 48 -153 27 3 27 4 24 68 -1 36 -5 80 -8 98 -6 39 2 40 43 2 l33
-29 21 -213 c12 -117 24 -216 28 -220 3 -3 18 -4 33 -1 23 4 26 9 22 37 -9 68
-34 329 -31 332 1 2 28 -17 58 -41 l56 -44 10 -111 c6 -61 14 -114 17 -117 3
-3 17 -2 31 1 l26 7 -7 77 c-12 142 -23 125 91 139 55 6 101 12 103 12 1 1 2
15 2 31 0 35 6 34 -129 19 l-99 -12 -63 49 c-55 44 -59 49 -38 52 13 2 101 11
194 20 l170 17 -3 30 c-2 17 -5 31 -6 32 -1 2 -88 -6 -192 -17 -243 -26 -262
-25 -296 5 -16 13 -28 26 -28 29 0 2 38 7 85 11 47 4 88 11 90 16 3 4 3 20 -1
35 -6 22 -11 25 -34 21 -15 -3 -71 -9 -126 -12 l-99 -7 -77 63 c-42 35 -75 66
-72 70 2 4 49 33 104 64 89 51 99 59 87 74 -7 9 -43 50 -80 92 -37 42 -67 79
-67 82 0 7 182 77 202 77 8 0 58 -20 109 -44 133 -61 133 -61 148 -30 6 15 10
28 9 29 -2 2 -40 20 -85 40 -46 21 -80 41 -77 46 2 5 22 13 42 20 36 10 46 7
237 -79 l200 -90 13 25 c8 14 10 29 5 34 -4 4 -80 40 -168 80 -88 39 -161 72
-163 74 -1 1 29 14 67 28 l70 26 101 -47 c99 -45 103 -46 116 -27 8 10 14 24
14 30 0 6 -40 28 -90 49 -49 22 -90 43 -90 49 0 5 18 50 40 99 22 50 40 92 40
93 0 2 -13 8 -29 13 l-29 10 -47 -103 -47 -104 -65 -26 c-36 -14 -67 -24 -70
-21 -2 2 30 80 72 172 70 157 74 170 58 182 -10 7 -24 11 -31 10 -7 -2 -54
-94 -104 -205 -90 -198 -91 -201 -131 -217 -22 -9 -42 -14 -44 -12 -2 2 12 39
32 82 34 74 35 79 18 92 -10 7 -23 11 -31 10 -7 -2 -35 -53 -63 -113 l-50
-111 -97 -36 -97 -36 -3 119 c-2 85 -6 119 -15 119 -7 0 -60 -10 -120 -21 -59
-12 -110 -20 -112 -17 -3 3 3 53 12 111 l18 106 105 76 c57 42 106 78 109 80
5 6 -29 45 -39 45 -4 0 -42 -25 -84 -55 l-77 -55 6 37 c4 21 9 45 11 53 2 8
83 71 179 140 96 68 175 127 175 131 0 4 -8 16 -17 28 -18 21 -19 20 -163 -84
-79 -58 -147 -105 -151 -105 -3 0 -1 30 5 68 l11 67 90 67 c89 67 97 79 70
107 -11 12 -26 4 -97 -47 l-83 -60 -60 84 c-33 46 -63 84 -66 84 -4 0 -16 -8
-28 -17z m-109 -854 c29 -17 54 -32 56 -34 3 -3 -152 -65 -162 -65 -5 0 29
103 39 120 8 14 7 14 67 -21z m368 -109 c0 -38 -3 -70 -6 -70 -10 0 -125 98
-125 107 0 6 77 27 119 32 8 1 12 -19 12 -69z m-273 -12 c-3 -13 -11 -58 -18
-100 -6 -43 -15 -78 -18 -78 -9 0 -146 114 -150 125 -3 9 151 74 178 75 9 0
11 -8 8 -22z m154 -50 c43 -35 78 -66 78 -69 1 -8 -190 -82 -195 -76 -6 5 28
207 34 207 2 0 40 -28 83 -62z m-298 -127 l67 -55 -30 -13 c-17 -7 -63 -24
-102 -38 l-71 -26 6 28 c3 16 11 63 17 105 14 88 2 88 113 -1z m-180 -13 c-8
-46 -16 -85 -18 -87 -4 -4 -94 90 -95 99 0 5 111 69 121 70 3 0 0 -37 -8 -82z
m584 -12 c-3 -8 -11 -52 -17 -98 -7 -45 -16 -87 -21 -92 -4 -5 -44 21 -90 59
l-81 69 93 37 c105 41 124 46 116 25z m112 -72 c23 -26 41 -50 41 -53 0 -4
-28 -22 -61 -40 l-62 -34 6 34 c4 19 9 58 13 87 4 28 10 52 14 52 5 0 27 -21
49 -46z m-433 -41 c-2 -10 -10 -52 -16 -93 -6 -41 -13 -81 -16 -88 -2 -9 -30
8 -79 49 -42 34 -78 66 -80 69 -4 7 167 78 188 80 5 0 6 -8 3 -17z m155 -69
c44 -37 79 -68 77 -69 -10 -9 -192 -75 -196 -70 -8 8 25 205 35 205 3 0 41
-30 84 -66z m-293 -124 c28 -24 51 -45 49 -46 -2 -2 -33 -10 -70 -18 l-67 -14
0 76 c0 70 1 74 18 60 9 -8 41 -34 70 -58z m362 -85 c-12 -36 -25 -65 -29 -63
-27 11 -121 64 -121 68 0 7 163 69 169 64 1 -1 -7 -32 -19 -69z"/>
<path d="M2908 2457 c-61 -119 -50 -114 -148 -62 -47 24 -90 45 -96 45 -6 0
-16 -11 -22 -24 -10 -24 -8 -27 51 -59 34 -19 80 -44 102 -55 36 -18 43 -27
62 -88 13 -37 21 -69 19 -71 -2 -2 -78 35 -170 83 -92 47 -169 85 -170 83 -9
-10 -27 -51 -24 -54 2 -1 92 -48 200 -104 l196 -102 16 -44 c8 -25 13 -45 10
-45 -2 0 -39 18 -82 39 -75 38 -79 39 -90 20 -7 -10 -12 -23 -12 -28 0 -6 49
-36 109 -68 l109 -58 28 -90 c15 -49 29 -96 32 -104 4 -12 -14 -13 -116 -7
-67 4 -122 4 -122 -1 0 -4 7 -51 15 -103 22 -140 22 -140 -17 -130 -18 5 -68
16 -110 25 l-77 17 -71 109 c-38 60 -73 109 -76 109 -13 0 -44 -21 -44 -30 0
-5 22 -44 49 -87 28 -43 49 -78 48 -79 -1 -1 -23 2 -49 8 l-46 11 -117 183
c-65 101 -121 184 -125 184 -4 0 -17 -8 -28 -17 -20 -18 -19 -20 79 -171 54
-84 99 -154 99 -156 0 -1 -32 4 -70 12 l-71 16 -64 98 -65 99 -25 -17 c-14 -9
-25 -18 -25 -20 0 -2 25 -42 56 -89 31 -48 54 -88 53 -89 -2 -2 -41 -27 -86
-55 -46 -29 -83 -58 -83 -64 0 -7 7 -20 14 -30 13 -16 20 -14 110 44 l96 62
63 -13 c34 -7 66 -16 70 -20 5 -4 -61 -51 -145 -105 -84 -54 -155 -100 -157
-102 -10 -8 24 -53 36 -49 8 3 95 57 194 121 177 114 180 115 220 106 22 -5
42 -11 45 -13 2 -3 -30 -26 -71 -52 -65 -41 -74 -50 -65 -66 6 -10 15 -22 20
-25 6 -4 57 23 114 59 l103 66 99 -22 c55 -12 102 -24 106 -28 4 -3 -18 -46
-50 -95 -32 -50 -61 -95 -65 -102 -5 -7 29 -26 103 -55 60 -23 110 -46 110
-50 0 -3 -34 -43 -76 -87 l-76 -81 -77 0 c-42 0 -100 -3 -128 -6 -51 -7 -53
-8 -53 -37 l0 -29 99 4 99 4 -30 -38 c-27 -34 -34 -38 -76 -38 -89 -1 -394
-19 -399 -24 -3 -3 -2 -17 1 -31 l7 -26 179 7 c110 4 180 3 180 -2 0 -6 -22
-31 -48 -57 l-48 -47 -96 0 c-117 0 -128 -4 -128 -42 l0 -30 108 4 107 3 3
-103 3 -102 34 0 35 0 -6 115 -7 115 51 54 51 54 5 -42 c3 -22 8 -108 11 -191
3 -82 7 -151 9 -153 2 -1 15 0 30 4 26 6 26 7 25 93 -1 47 -4 148 -8 223 l-6
137 31 37 31 37 7 -92 8 -91 30 0 31 0 -6 125 -6 125 72 78 c39 42 74 78 77
80 3 1 30 -47 60 -108 30 -60 56 -110 58 -110 2 0 46 34 98 75 60 48 96 71 99
63 2 -7 17 -54 33 -105 l29 -92 -60 -117 c-56 -111 -59 -118 -41 -131 10 -7
23 -13 28 -13 6 0 31 39 56 86 l45 87 15 -48 15 -48 -98 -191 c-54 -105 -98
-194 -97 -198 0 -15 41 -30 53 -19 7 5 46 77 87 160 41 83 77 151 80 151 3 0
16 -30 28 -67 l21 -67 -54 -101 -54 -102 25 -12 c14 -6 28 -11 32 -11 5 0 28
41 52 90 24 50 47 89 50 88 3 -2 46 -24 96 -50 l91 -47 12 25 c6 14 11 27 11
29 0 2 -45 28 -100 57 l-100 53 -20 66 c-11 36 -20 69 -20 72 0 3 74 -32 163
-79 90 -46 168 -84 174 -84 5 0 15 11 21 24 11 24 8 27 -121 94 -73 38 -164
86 -203 105 -57 29 -73 42 -78 64 -4 15 -9 36 -12 46 -5 15 10 10 76 -23 45
-23 83 -40 85 -38 13 16 26 53 19 55 -5 2 -56 29 -114 61 l-104 57 -28 90
c-15 50 -28 95 -28 100 0 6 44 8 121 5 66 -3 122 -4 123 -3 1 2 -5 56 -15 120
-9 65 -16 119 -14 121 4 5 200 -40 211 -49 6 -5 39 -54 73 -109 35 -55 66
-102 70 -104 4 -3 17 4 30 13 l24 18 -51 79 c-28 43 -48 80 -43 82 4 1 25 -1
46 -6 36 -7 43 -16 158 -195 115 -181 121 -187 141 -173 12 8 20 21 20 29 -1
8 -42 78 -93 156 -50 78 -91 144 -91 147 0 6 37 -1 103 -17 33 -9 45 -21 98
-104 34 -52 64 -95 67 -95 11 1 42 27 42 35 0 4 -22 43 -50 86 -27 43 -50 80
-50 84 0 3 38 30 85 61 47 30 85 58 85 62 0 4 -7 16 -15 27 -17 22 -16 22
-144 -60 l-64 -42 -73 15 c-41 8 -72 18 -69 22 2 3 74 51 159 106 86 54 156
101 156 104 0 3 -8 15 -18 27 l-17 22 -189 -120 c-184 -119 -189 -121 -232
-114 -24 3 -44 9 -44 13 0 4 32 27 70 51 39 24 70 49 70 55 0 6 -7 19 -14 29
-13 17 -21 14 -121 -49 l-106 -67 -96 21 c-53 12 -99 24 -101 27 -3 2 23 48
57 100 33 53 61 99 61 103 0 4 -49 27 -110 51 -60 24 -110 47 -110 52 0 5 30
41 67 81 37 40 68 75 70 76 1 2 61 7 135 10 l133 7 0 30 0 30 -99 -4 -99 -3
27 35 c15 20 35 38 44 41 10 3 110 8 225 12 l207 6 0 35 0 34 -112 -6 c-62 -3
-146 -8 -185 -11 -40 -2 -73 -1 -73 3 0 5 22 30 48 56 l49 48 111 6 112 6 0
31 0 32 -105 -4 -105 -4 0 53 c0 30 -3 78 -6 107 -7 50 -8 52 -37 52 l-30 0 6
-117 6 -118 -51 -53 c-27 -29 -52 -52 -53 -50 -2 2 -7 87 -11 191 l-7 187 -34
0 -35 0 6 -67 c3 -38 8 -139 12 -225 l6 -157 -28 -35 c-16 -20 -32 -36 -36
-36 -5 0 -8 41 -8 90 l0 90 -33 0 -34 0 5 -129 5 -129 -69 -74 c-37 -40 -69
-74 -70 -76 -1 -2 -28 44 -59 102 -36 69 -61 104 -68 99 -7 -3 -51 -37 -100
-75 -100 -79 -84 -86 -132 63 l-28 86 62 117 c35 65 61 119 60 120 -14 12 -52
27 -56 22 -3 -2 -24 -42 -48 -87 -23 -45 -45 -77 -47 -73 -3 5 -11 25 -17 45
-12 36 -9 42 90 233 56 109 100 198 98 200 -16 14 -54 27 -56 20 -2 -5 -41
-81 -87 -169 l-84 -159 -22 71 -21 71 51 102 c28 56 50 103 48 105 -5 4 -47
25 -50 25 -2 0 -20 -33 -40 -73z m402 -787 c16 -33 30 -61 30 -64 0 -5 -160
30 -166 37 -3 3 95 86 103 87 2 0 16 -27 33 -60z m-310 -78 c0 -4 -27 -34 -59
-66 l-59 -58 -5 28 c-3 16 -8 46 -12 67 l-6 37 71 0 c38 0 70 -4 70 -8z m257
-38 c94 -20 95 -11 -4 -118 l-61 -67 -31 100 c-17 54 -31 102 -31 106 0 4 10
5 23 2 12 -3 59 -13 104 -23z m-160 -95 l31 -101 -32 6 c-17 3 -64 13 -103 22
-69 15 -72 17 -59 35 18 26 120 136 126 138 4 0 20 -44 37 -100z m492 -24 c1
-2 -14 -31 -35 -65 l-38 -62 -28 83 c-15 46 -28 86 -28 90 0 6 118 -36 129
-46z m-164 -58 c15 -49 24 -91 21 -94 -4 -5 -196 34 -203 41 -2 2 29 38 68 80
40 42 75 73 80 69 4 -4 19 -48 34 -96z m-407 -63 c45 -10 82 -21 82 -25 0 -4
-31 -40 -68 -80 l-68 -73 -28 87 c-15 48 -29 94 -33 103 -5 12 -1 15 13 11 10
-3 56 -14 102 -23z m-146 -99 c14 -47 22 -85 18 -85 -18 0 -121 48 -120 56 3
14 64 113 71 114 3 0 17 -38 31 -85z m468 19 c47 -10 87 -19 89 -20 2 -2 -29
-40 -70 -85 l-73 -81 -26 78 c-42 124 -44 137 -23 130 10 -2 56 -13 103 -22z
m-165 -51 c10 -32 24 -77 31 -101 l13 -43 -32 6 c-18 4 -66 14 -107 24 l-74
17 69 76 c39 42 73 77 76 77 3 1 14 -25 24 -56z m309 -79 c13 -94 13 -94 -48
-94 -91 0 -93 4 -29 76 31 35 60 64 63 64 4 0 10 -21 14 -46z m-297 -128 c5
-5 -95 -86 -106 -86 -4 0 -21 29 -38 64 l-32 64 86 -19 c47 -10 88 -21 90 -23z"/>
<path d="M10083 2435 l-21 -15 52 -101 53 -100 -21 -70 c-12 -38 -23 -69 -26
-69 -3 0 -43 73 -89 163 -46 89 -86 164 -87 166 -6 7 -54 -18 -54 -28 0 -5 45
-95 100 -199 55 -104 100 -198 100 -208 -1 -11 -7 -32 -14 -49 l-12 -29 -43
77 c-23 42 -44 77 -46 77 -2 0 -16 -5 -30 -12 l-25 -11 59 -112 60 -112 -31
-99 c-17 -54 -33 -101 -34 -102 -1 -2 -43 28 -92 67 -50 39 -94 71 -99 71 -5
0 -33 -49 -63 -110 l-54 -110 -78 83 -78 82 6 131 7 131 -28 7 c-15 4 -30 5
-33 2 -2 -3 -7 -49 -10 -101 l-5 -96 -34 33 -34 33 6 140 c3 77 8 177 11 223
l5 82 -35 0 -36 0 0 -72 c0 -40 -3 -125 -7 -188 l-6 -114 -49 54 -49 55 3 115
3 115 -33 3 -32 3 0 -74 c0 -41 -3 -89 -7 -107 l-6 -33 -104 6 -103 6 0 -35 0
-34 108 0 c119 0 115 2 183 -74 l44 -49 -85 6 c-47 4 -134 7 -195 8 l-110 2
-3 -32 -3 -31 53 -1 c29 0 131 -4 226 -8 l173 -7 37 -38 37 -37 -95 3 -95 3 0
-30 0 -30 122 -5 c137 -6 128 -1 224 -111 l49 -57 -106 -43 c-58 -24 -107 -46
-109 -49 -2 -3 25 -50 61 -105 35 -54 62 -101 60 -103 -2 -2 -52 -14 -110 -27
l-106 -24 -110 69 c-61 39 -112 70 -114 70 -2 0 -11 -11 -20 -25 l-17 -25 81
-52 c84 -53 86 -59 23 -73 -30 -6 -50 4 -209 105 -96 61 -181 113 -188 116
-16 6 -44 -45 -30 -54 6 -4 74 -47 152 -95 78 -49 142 -92 142 -96 0 -4 -31
-14 -68 -21 l-69 -13 -94 61 -94 60 -17 -21 c-10 -12 -18 -25 -18 -28 0 -4 35
-29 77 -55 42 -27 81 -52 87 -56 5 -3 -15 -45 -47 -96 l-56 -90 24 -16 c13 -9
26 -16 29 -16 2 0 30 42 61 93 32 50 62 95 68 98 14 10 128 31 133 26 3 -3
-38 -73 -90 -156 -53 -83 -96 -155 -96 -160 0 -17 41 -34 52 -23 6 6 61 91
123 188 l112 178 46 12 c26 7 47 10 47 8 0 -2 -20 -35 -45 -74 -25 -39 -45
-74 -45 -78 0 -11 40 -33 49 -27 5 3 37 50 72 105 61 95 65 100 109 109 25 5
73 16 108 25 45 10 62 11 62 3 0 -7 -7 -57 -15 -112 -8 -55 -15 -105 -15 -112
0 -9 30 -10 122 -6 105 5 121 4 116 -9 -3 -8 -18 -56 -34 -106 l-27 -92 -118
-62 -117 -62 14 -28 15 -29 86 45 c48 25 88 44 88 43 1 -1 -4 -22 -12 -47 -13
-45 -14 -45 -156 -119 -250 -130 -248 -128 -235 -156 6 -14 15 -25 19 -25 5 0
79 37 164 81 86 45 157 80 159 78 2 -2 -6 -33 -18 -69 l-21 -65 -87 -45 c-109
-57 -112 -60 -97 -93 l12 -27 93 51 93 50 37 -73 c58 -114 61 -119 90 -106 13
6 24 16 24 21 0 5 -23 52 -52 105 l-51 95 24 74 24 74 84 -160 c46 -87 87
-164 91 -171 6 -9 13 -9 31 0 13 7 26 14 28 16 2 1 -44 92 -102 202 -105 198
-105 199 -94 240 6 23 15 42 19 42 4 0 24 -33 44 -73 20 -39 38 -73 39 -75 3
-3 44 15 54 24 2 2 -22 53 -54 114 l-57 111 31 101 c17 56 33 103 35 105 2 2
47 -31 101 -72 53 -42 98 -75 100 -73 1 2 26 49 54 106 28 56 55 102 59 101 4
-1 38 -35 75 -76 l69 -74 -4 -134 -3 -135 33 0 32 0 1 78 c0 42 4 86 8 96 7
17 10 16 36 -18 l28 -37 -7 -219 -8 -220 30 0 c28 0 29 2 36 61 3 34 6 107 7
163 1 56 4 111 7 123 7 21 10 18 54 -31 l48 -54 -7 -111 -6 -110 27 -7 c15 -3
30 -4 33 0 3 3 8 51 11 106 l5 101 106 -2 106 -2 3 32 3 31 -73 1 c-145 2
-165 8 -217 68 l-45 53 192 -7 192 -8 0 31 0 30 -107 6 c-60 3 -162 9 -228 12
l-120 7 -30 35 -29 35 92 -5 92 -4 0 31 0 32 -122 6 -123 6 -74 76 c-42 43
-70 79 -65 84 5 4 57 27 116 51 65 26 104 48 101 54 -4 6 -33 50 -65 98 -32
48 -58 91 -58 96 0 5 47 19 104 31 l104 22 111 -70 111 -70 16 25 c20 29 21
28 -74 87 -40 25 -69 48 -64 51 5 3 27 8 49 12 38 6 49 1 224 -110 l184 -116
17 23 c10 12 18 24 18 27 0 3 -68 47 -150 99 -150 93 -173 111 -148 111 7 1
38 7 69 14 l57 14 93 -59 c51 -33 96 -59 100 -59 4 0 14 11 23 24 15 24 15 25
-22 47 -20 13 -61 38 -90 56 l-52 34 37 57 c79 123 78 121 57 137 -11 8 -23
14 -29 15 -5 0 -36 -42 -68 -94 l-57 -94 -71 -17 c-38 -10 -72 -16 -74 -14 -2
3 42 76 97 163 l100 159 -23 18 c-19 14 -27 15 -35 6 -6 -7 -58 -86 -114 -177
-57 -91 -110 -172 -117 -182 -14 -15 -80 -34 -90 -25 -2 3 17 37 42 77 43 68
45 73 28 86 -10 7 -23 14 -29 14 -7 0 -41 -46 -78 -103 l-65 -103 -97 -22
c-54 -12 -100 -20 -102 -17 -6 5 15 186 25 219 5 18 0 19 -125 13 l-130 -7 34
106 c18 58 34 107 36 109 2 1 54 28 115 61 62 32 113 64 113 70 0 5 -6 18 -13
28 -13 18 -18 16 -101 -27 l-88 -45 7 26 c15 63 29 73 222 175 l192 101 -15
28 -15 29 -164 -86 c-91 -48 -165 -83 -165 -78 0 4 8 35 18 68 l18 60 99 53
c55 30 101 55 103 57 3 3 -15 43 -24 54 -1 2 -41 -18 -87 -43 -47 -25 -90 -46
-96 -46 -6 0 -31 41 -56 90 -25 50 -49 90 -53 90 -4 0 -17 -7 -29 -15z m-209
-838 l40 -34 -85 -20 c-46 -10 -85 -18 -87 -17 -2 1 11 30 28 63 34 69 35 69
104 8z m333 -143 c-4 -37 -9 -69 -12 -72 -2 -3 -31 24 -64 59 l-59 64 47 6
c102 13 95 18 88 -57z m-267 40 c0 -4 -14 -51 -30 -105 l-31 -98 -72 75 c-40
42 -73 79 -75 83 -1 4 39 17 90 28 106 24 118 25 118 17z m210 -175 c0 -6
-200 -53 -205 -47 -2 2 11 50 28 107 l32 104 72 -79 c40 -43 73 -81 73 -85z
m-543 78 c-3 -7 -13 -41 -22 -75 -10 -35 -21 -65 -25 -67 -4 -3 -24 20 -44 51
l-37 55 53 24 c60 27 82 31 75 12z m148 -67 c37 -39 65 -73 62 -76 -9 -9 -197
-52 -197 -45 -1 14 55 191 61 191 3 0 36 -32 74 -70z m404 -92 c-1 -20 -53
-184 -60 -189 -3 -2 -39 31 -79 73 -47 51 -67 80 -58 83 13 4 175 42 191 44 4
1 7 -5 6 -11z m108 -83 c22 -34 33 -59 27 -65 -12 -11 -115 -52 -121 -47 -4 5
46 167 52 167 3 0 21 -25 42 -55z m-437 18 c0 -19 -54 -183 -61 -183 -9 0
-139 143 -134 148 5 5 155 40 178 41 9 1 17 -2 17 -6z m206 -170 c-6 -6 -166
-42 -187 -43 -14 0 -12 14 15 101 l31 100 73 -77 c40 -42 71 -79 68 -81z
m-326 -55 c0 -5 -32 -8 -71 -8 l-71 0 7 43 c3 23 9 55 12 71 l5 28 59 -63 c32
-35 58 -67 59 -71z m310 -79 c-22 -42 -36 -59 -46 -55 -19 7 -103 70 -104 77
0 7 123 37 158 38 22 1 22 1 -8 -60z"/>
</g>
</svg>
